<svg width="44" height="20" viewBox="0 0 44 20" fill="none" xmlns="http://www.w3.org/2000/svg">
<path d="M8.242 0.592H11.57L13.676 6.702L15.808 0.592H19.11L15.938 8.99L18.278 14.866L23.504 0.539999H27.404L20.02 19H16.926L13.676 11.252L10.452 19H7.358L0 0.539999H3.848L9.1 14.866L11.388 8.99L8.242 0.592Z" fill="#2196F3"/>
<path d="M41.0731 5.376C40.9518 5.25467 40.7264 5.09 40.3971 4.882C40.0851 4.674 39.6951 4.47467 39.2271 4.284C38.7764 4.09333 38.2824 3.92867 37.7451 3.79C37.2078 3.634 36.6618 3.556 36.1071 3.556C35.1364 3.556 34.3998 3.738 33.8971 4.102C33.4118 4.466 33.1691 4.97733 33.1691 5.636C33.1691 6.13867 33.3251 6.53733 33.6371 6.832C33.9491 7.12667 34.4171 7.378 35.0411 7.586C35.6651 7.794 36.4451 8.01933 37.3811 8.262C38.5944 8.55667 39.6431 8.92067 40.5271 9.354C41.4284 9.77 42.1131 10.3247 42.5811 11.018C43.0664 11.694 43.3091 12.5953 43.3091 13.722C43.3091 14.71 43.1271 15.5593 42.7631 16.27C42.3991 16.9633 41.8964 17.5267 41.2551 17.96C40.6138 18.3933 39.8858 18.714 39.0711 18.922C38.2564 19.1127 37.3898 19.208 36.4711 19.208C35.5524 19.208 34.6338 19.1127 33.7151 18.922C32.7964 18.7313 31.9124 18.4627 31.0631 18.116C30.2138 17.752 29.4338 17.3187 28.7231 16.816L30.3091 13.722C30.4651 13.878 30.7424 14.086 31.1411 14.346C31.5398 14.5887 32.0251 14.84 32.5971 15.1C33.1691 15.3427 33.7931 15.5507 34.4691 15.724C35.1451 15.8973 35.8298 15.984 36.5231 15.984C37.4938 15.984 38.2304 15.8193 38.7331 15.49C39.2358 15.1607 39.4871 14.6927 39.4871 14.086C39.4871 13.5313 39.2878 13.098 38.8891 12.786C38.4904 12.474 37.9358 12.2053 37.2251 11.98C36.5144 11.7373 35.6738 11.4773 34.7031 11.2C33.5418 10.8707 32.5711 10.5067 31.7911 10.108C31.0111 9.692 30.4304 9.172 30.0491 8.548C29.6678 7.924 29.4771 7.144 29.4771 6.208C29.4771 4.94267 29.7718 3.88533 30.3611 3.036C30.9678 2.16933 31.7824 1.51933 32.8051 1.086C33.8278 0.635333 34.9631 0.409999 36.2111 0.409999C37.0778 0.409999 37.8924 0.505332 38.6551 0.695999C39.4351 0.886666 40.1631 1.138 40.8391 1.45C41.5151 1.762 42.1218 2.1 42.6591 2.464L41.0731 5.376Z" fill="black"/>
</svg>
